<svg xmlns="http://www.w3.org/2000/svg" version="1.1" xmlns:xlink="http://www.w3.org/1999/xlink" xmlns:svgjs="http://svgjs.dev/svgjs" width="128" height="128" viewBox="0 0 128 128"><g transform="matrix(0.5175879396984925,0,0,0.5175879396984925,30.902366235790915,12.760752631578946)"><svg viewBox="0 0 61 95" data-background-color="#ffffff" preserveAspectRatio="xMidYMid meet" height="199" width="128" xmlns="http://www.w3.org/2000/svg" xmlns:xlink="http://www.w3.org/1999/xlink"><g id="tight-bounds" transform="matrix(1,0,0,1,-0.02577546543280107,-0.24049999999999727)"><svg viewBox="0 0 61.051550930865595 95.481" height="95.481" width="61.051550930865595"><g><svg viewBox="0 0 61.051550930865595 95.481" height="95.481" width="61.051550930865595"><g><svg viewBox="0 0 61.051550930865595 95.481" height="95.481" width="61.051550930865595"><g id="textblocktransform"><svg viewBox="0 0 61.051550930865595 95.481" height="95.481" width="61.051550930865595" id="textblock"><g><svg viewBox="0 0 61.051550930865595 95.481" height="95.481" width="61.051550930865595"><g><svg viewBox="0 0 61.051550930865595 95.481" height="95.481" width="61.051550930865595"><g><svg xmlns="http://www.w3.org/2000/svg" xmlns:xlink="http://www.w3.org/1999/xlink" version="1.0" x="0" y="0" viewBox="266.36599999999993 370.66299999999995 64.12199999999996 100.28300000000002" enable-background="new 247.64 370.945 100 100" xml:space="preserve" width="61.051550930865595" height="95.481" class="icon-icon-0" data-fill-palette-color="accent" id="icon-0"><path d="M330.475 438.775v-43.071c-0.01-4.63-3.773-7.393-7.41-7.393-0.004 0-0.007 0-0.012 0-1.865 0.002-3.717 0.722-5.076 1.974-0.02 0.018-0.035 0.038-0.054 0.056v-8.135c-0.011-4.631-3.774-7.394-7.41-7.394-0.006 0-0.009 0-0.013 0-1.865 0.002-3.717 0.723-5.075 1.974-0.051 0.046-0.094 0.098-0.144 0.146-0.562-3.947-3.991-6.269-7.322-6.269-0.003 0-0.007 0-0.012 0-1.864 0.002-3.715 0.723-5.075 1.974-1.498 1.379-2.322 3.313-2.317 5.446v2.539c-1.406-1.321-3.291-2.043-5.149-2.043-0.002 0-0.006 0-0.011 0-1.864 0.003-3.715 0.723-5.076 1.973-1.497 1.38-2.322 3.314-2.317 5.445v23.725c-1.814-2.056-4.481-3.192-7.098-3.192-0.004 0-0.009 0-0.014 0-2.387 0.005-2.492 0.007-2.539 0.007-0.032 0-0.031 0-0.853 0-0.627 0-1.132 0.504-1.132 1.132v31.233h0.003c0.067 17.68 14.397 32.044 32.005 32.044 17.708 0 32.114-14.431 32.114-32.17H330.475L330.475 438.775zM298.375 468.681c-16.401 0-29.746-13.416-29.746-29.909v-29.975c0.276-0.002 0.885-0.002 2.263-0.004 0.005 0 0.009 0 0.012 0 3.436 0 7.088 2.48 7.097 7.079v18.5h1.132c5.758 0 11.241 1.667 15.896 4.68l0.009-0.019c0.141 0.062 0.296 0.1 0.458 0.1 0.626 0 1.132-0.506 1.132-1.132 0-0.406-0.228-0.749-0.552-0.948l0.009-0.013c-4.671-2.979-10.101-4.71-15.819-4.911v-46.134c-0.004-1.912 0.862-3.11 1.587-3.777 0.948-0.873 2.24-1.375 3.547-1.377 0.002 0 0.004 0 0.008 0 2.491 0 5.139 1.799 5.146 5.133v35.522c0 0.626 0.506 1.132 1.132 1.132 0.626 0 1.131-0.506 1.131-1.132v-43.418c-0.004-1.911 0.861-3.108 1.587-3.777 0.948-0.873 2.24-1.374 3.548-1.376 0.002 0 0.004 0 0.008 0 2.49 0 5.139 1.798 5.146 5.132v43.438c0 0.626 0.506 1.132 1.132 1.132s1.131-0.506 1.131-1.132v-39.269c-0.003-1.911 0.862-3.109 1.587-3.777 0.947-0.873 2.24-1.373 3.548-1.375 0.002 0 0.005 0 0.009 0 2.49 0 5.138 1.798 5.146 5.132v38.595 0.619h0.016c-0.002 0.026-0.016 0.049-0.016 0.075 0 0.626 0.505 1.132 1.132 1.132 0.626 0 1.132-0.506 1.132-1.132 0-0.026-0.015-0.049-0.017-0.075h0.017v-0.619-25.076c-0.004-1.911 0.86-3.108 1.586-3.777 0.947-0.872 2.24-1.373 3.549-1.375 0.002 0 0.004 0 0.007 0 2.491 0 5.14 1.798 5.147 5.132v43.067h0.015C328.226 455.265 314.835 468.681 298.375 468.681z" fill="#3b71ca" data-fill-palette-color="accent"></path></svg></g></svg></g></svg></g></svg></g></svg></g></svg></g><defs></defs></svg><rect width="61.051550930865595" height="95.481" fill="none" stroke="none" visibility="hidden"></rect></g></svg></g></svg>