<svg xmlns="http://www.w3.org/2000/svg" version="1.1" xmlns:xlink="http://www.w3.org/1999/xlink" xmlns:svgjs="http://svgjs.dev/svgjs" width="2000" height="323" viewBox="0 0 2000 323"><g transform="matrix(1,0,0,1,-1.206067179081515,0.3389932378075571)"><svg viewBox="0 0 396 64" data-background-color="#ffffff" preserveAspectRatio="xMidYMid meet" height="323" width="2000" xmlns="http://www.w3.org/2000/svg" xmlns:xlink="http://www.w3.org/1999/xlink"><g id="tight-bounds" transform="matrix(1,0,0,1,0.24120613239523436,-0.06716893876063068)"><svg viewBox="0 0 395.52 64.13433787752126" height="64.13433787752126" width="395.52"><g><svg viewBox="0 0 455.3433621694463 73.83481249914493" height="64.13433787752126" width="395.52"><g transform="matrix(1,0,0,1,0,10.204377125424518)"><svg viewBox="0 0 395.52 53.426058248295895" height="53.426058248295895" width="395.52"><g id="textblocktransform"><svg viewBox="0 0 395.52 53.426058248295895" height="53.426058248295895" width="395.52" id="textblock"><g><svg viewBox="0 0 395.52 53.426058248295895" height="53.426058248295895" width="395.52"><g transform="matrix(1,0,0,1,0,0)"><svg width="395.52" viewBox="0.9755553777820001 -35.5 266.4917950472907 36" height="53.426058248295895" data-palette-color="#3b71ca"><g transform="matrix(1,0,0,1,0,0)"><g><svg width="7.953138075313807" viewBox="3.18 -8.03 8.52 8.49" height="7.92" data-palette-color="#3b71ca" id="scriptelement" x="259.51421234975885" y="-7.92"><path d="M7.44 0.46L7.44 0.46Q5.68 0.46 4.43-0.79 3.18-2.04 3.18-3.8L3.18-3.8Q3.18-5.54 4.43-6.78 5.68-8.03 7.44-8.03L7.44-8.03Q9.14-8.03 10.42-6.78 11.7-5.54 11.7-3.8L11.7-3.8Q11.7-2.63 11.11-1.66 10.51-0.69 9.55-0.12 8.59 0.46 7.44 0.46Z" opacity="1" transform="matrix(1,0,0,1,0,0)" fill="#3b71ca" class="undefined-123" data-fill-palette-color="primary" id="yy-123"></path></svg></g></g><g class="wordmark-text-0" data-fill-palette-color="primary" id="text-0"><path d="M6.5 0L2 0Q1.45 0 1.18-0.33 0.9-0.65 1-1.2L1-1.2 7.95-33.75Q8.05-34.3 8.45-34.65 8.85-35 9.4-35L9.4-35 13.9-35Q14.45-35 14.73-34.65 15-34.3 14.9-33.75L14.9-33.75 12.15-20.85 26.9-20.85 29.65-33.75Q29.75-34.3 30.15-34.65 30.55-35 31.1-35L31.1-35 35.6-35Q36.15-35 36.43-34.65 36.7-34.3 36.6-33.75L36.6-33.75 29.65-1.2Q29.55-0.7 29.15-0.35 28.75 0 28.2 0L28.2 0 23.7 0Q23.15 0 22.88-0.35 22.6-0.7 22.7-1.2L22.7-1.2 25.55-14.6 10.8-14.6 7.95-1.2Q7.85-0.7 7.45-0.35 7.05 0 6.5 0L6.5 0ZM46.4 0.5L46.4 0.5Q43.8 0.5 42-0.38 40.2-1.25 39.17-2.85 38.15-4.45 37.85-6.63 37.55-8.8 37.95-11.4L37.95-11.4Q38.15-12.3 38.3-13.03 38.45-13.75 38.65-14.65L38.65-14.65Q39.3-17.15 40.37-19.3 41.45-21.45 43.02-23.08 44.6-24.7 46.72-25.6 48.85-26.5 51.6-26.5L51.6-26.5Q54.7-26.5 56.32-25.53 57.95-24.55 58.85-23.15L58.85-23.15 59.2-24.8Q59.3-25.3 59.7-25.65 60.1-26 60.6-26L60.6-26 64.55-26Q65.05-26 65.35-25.65 65.65-25.3 65.55-24.8L65.55-24.8 60.5-1.2Q60.4-0.7 60-0.35 59.6 0 59.1 0L59.1 0 55.15 0Q54.6 0 54.32-0.35 54.05-0.7 54.15-1.2L54.15-1.2 54.55-3.05Q53.05-1.5 51.25-0.5 49.45 0.5 46.4 0.5ZM48.65-4.85L48.65-4.85Q50.75-4.85 52.25-5.8 53.75-6.75 54.67-8.22 55.6-9.7 56-11.25L56-11.25Q56.25-12.15 56.45-13.18 56.65-14.2 56.8-15.1L56.8-15.1Q57.1-16.6 56.85-17.98 56.6-19.35 55.57-20.25 54.55-21.15 52.5-21.15L52.5-21.15Q50.55-21.15 49.17-20.23 47.8-19.3 46.9-17.8 46-16.3 45.45-14.5L45.45-14.5Q45.25-13.75 45.1-13 44.95-12.25 44.85-11.5L44.85-11.5Q44.6-9.7 44.72-8.2 44.85-6.7 45.77-5.78 46.7-4.85 48.65-4.85ZM72.55 0L68.15 0Q67.65 0 67.37-0.35 67.09-0.7 67.2-1.2L67.2-1.2 72.2-24.8Q72.3-25.3 72.72-25.65 73.15-26 73.65-26L73.65-26 77.75-26Q78.25-26 78.5-25.65 78.75-25.3 78.65-24.8L78.65-24.8 78.2-22.75Q79.8-24.35 81.97-25.43 84.15-26.5 86.9-26.5L86.9-26.5Q90.3-26.5 92.34-25.13 94.4-23.75 95.07-21.25 95.75-18.75 95-15.25L95-15.25 92-1.2Q91.9-0.7 91.5-0.35 91.09 0 90.55 0L90.55 0 86.15 0Q85.65 0 85.37-0.35 85.09-0.7 85.2-1.2L85.2-1.2 88.09-14.95Q88.75-18 87.97-19.58 87.2-21.15 84.3-21.15L84.3-21.15Q81.45-21.15 79.47-19.5 77.5-17.85 76.84-14.95L76.84-14.95 73.95-1.2Q73.84-0.7 73.45-0.35 73.05 0 72.55 0L72.55 0ZM108.04 0.5L108.04 0.5Q105.44 0.5 103.59-0.38 101.74-1.25 100.69-2.85 99.64-4.45 99.34-6.63 99.04-8.8 99.44-11.4L99.44-11.4Q99.59-12.3 99.74-13.03 99.89-13.75 100.14-14.65L100.14-14.65Q100.79-17.15 101.87-19.3 102.94-21.45 104.54-23.08 106.14-24.7 108.24-25.6 110.34-26.5 112.99-26.5L112.99-26.5Q115.84-26.5 117.62-25.58 119.39-24.65 120.29-23.2L120.29-23.2 122.69-34.3Q122.79-34.8 123.19-35.15 123.59-35.5 124.09-35.5L124.09-35.5 128.34-35.5Q128.89-35.5 129.17-35.15 129.44-34.8 129.34-34.3L129.34-34.3 122.29-1.2Q122.19-0.7 121.79-0.35 121.39 0 120.84 0L120.84 0 116.89 0Q116.39 0 116.12-0.35 115.84-0.7 115.94-1.2L115.94-1.2 116.34-3.05Q114.79-1.5 112.92-0.5 111.04 0.5 108.04 0.5ZM110.29-4.85L110.29-4.85Q112.34-4.85 113.89-5.8 115.44-6.75 116.39-8.22 117.34-9.7 117.74-11.25L117.74-11.25Q117.99-12.15 118.22-13.18 118.44-14.2 118.59-15.1L118.59-15.1Q118.89-16.6 118.57-17.98 118.24-19.35 117.19-20.25 116.14-21.15 114.14-21.15L114.14-21.15Q112.14-21.15 110.72-20.23 109.29-19.3 108.39-17.8 107.49-16.3 106.94-14.5L106.94-14.5Q106.74-13.75 106.57-13 106.39-12.25 106.29-11.5L106.29-11.5Q106.04-9.7 106.22-8.2 106.39-6.7 107.34-5.78 108.29-4.85 110.29-4.85ZM138.44 0L134.99 0Q134.24 0 133.87-0.43 133.49-0.85 133.54-1.5L133.54-1.5 134.19-33.9Q134.24-34.35 134.57-34.68 134.89-35 135.39-35L135.39-35 139.64-35Q140.29-35 140.59-34.7 140.89-34.4 140.84-33.85L140.84-33.85 140.29-11.7 147.84-26Q148.04-26.4 148.49-26.83 148.94-27.25 149.69-27.25L149.69-27.25 152.39-27.25Q153.19-27.25 153.44-26.83 153.69-26.4 153.74-26L153.74-26 155.29-11.4 164.24-34Q164.59-35 165.84-35L165.84-35 170.39-35Q170.99-35 171.17-34.63 171.34-34.25 171.14-33.7L171.14-33.7 158.64-1.5Q158.39-0.85 157.87-0.43 157.34 0 156.59 0L156.59 0 153.04 0Q152.29 0 151.94-0.4 151.59-0.8 151.54-1.25L151.54-1.25 149.19-17.9 140.44-1.25Q140.14-0.8 139.67-0.4 139.19 0 138.44 0L138.44 0ZM178.89 0.5L178.89 0.5Q176.29 0.5 174.49-0.38 172.69-1.25 171.66-2.85 170.64-4.45 170.34-6.63 170.04-8.8 170.44-11.4L170.44-11.4Q170.64-12.3 170.79-13.03 170.94-13.75 171.14-14.65L171.14-14.65Q171.79-17.15 172.86-19.3 173.94-21.45 175.51-23.08 177.09-24.7 179.21-25.6 181.34-26.5 184.09-26.5L184.09-26.5Q187.19-26.5 188.81-25.53 190.44-24.55 191.34-23.15L191.34-23.15 191.69-24.8Q191.79-25.3 192.19-25.65 192.59-26 193.09-26L193.09-26 197.04-26Q197.54-26 197.84-25.65 198.14-25.3 198.04-24.8L198.04-24.8 192.99-1.2Q192.89-0.7 192.49-0.35 192.09 0 191.59 0L191.59 0 187.64 0Q187.09 0 186.81-0.35 186.54-0.7 186.64-1.2L186.64-1.2 187.04-3.05Q185.54-1.5 183.74-0.5 181.94 0.5 178.89 0.5ZM181.14-4.85L181.14-4.85Q183.24-4.85 184.74-5.8 186.24-6.75 187.16-8.22 188.09-9.7 188.49-11.25L188.49-11.25Q188.74-12.15 188.94-13.18 189.14-14.2 189.29-15.1L189.29-15.1Q189.59-16.6 189.34-17.98 189.09-19.35 188.06-20.25 187.04-21.15 184.99-21.15L184.99-21.15Q183.04-21.15 181.66-20.23 180.29-19.3 179.39-17.8 178.49-16.3 177.94-14.5L177.94-14.5Q177.74-13.75 177.59-13 177.44-12.25 177.34-11.5L177.34-11.5Q177.09-9.7 177.21-8.2 177.34-6.7 178.26-5.78 179.19-4.85 181.14-4.85ZM212.39 0L208.49 0Q207.74 0 207.44-0.38 207.14-0.75 207.04-1.25L207.04-1.25 202.59-24.65Q202.49-25.3 202.84-25.65 203.19-26 203.79-26L203.79-26 207.59-26Q208.14-26 208.44-25.7 208.74-25.4 208.84-24.85L208.84-24.85 211.69-7.5 222.09-25.05Q222.24-25.35 222.61-25.68 222.99-26 223.59-26L223.59-26 227.94-26Q228.54-26 228.76-25.55 228.99-25.1 228.59-24.45L228.59-24.45 214.34-1.25Q213.99-0.75 213.56-0.38 213.14 0 212.39 0L212.39 0ZM239.83 0.5L239.83 0.5Q236.18 0.5 233.76-0.95 231.33-2.4 230.41-5.15 229.48-7.9 230.13-11.8L230.13-11.8Q230.23-12.3 230.38-13.08 230.53-13.85 230.68-14.3L230.68-14.3Q231.68-18.1 233.78-20.83 235.88-23.55 238.91-25.03 241.93-26.5 245.58-26.5L245.58-26.5Q249.63-26.5 252.01-24.83 254.38-23.15 255.16-20.18 255.93-17.2 255.13-13.3L255.13-13.3 254.88-12.25Q254.78-11.75 254.36-11.4 253.93-11.05 253.38-11.05L253.38-11.05 236.78-11.05Q236.78-11.05 236.76-10.9 236.73-10.75 236.68-10.65L236.68-10.65Q236.43-8.9 236.73-7.43 237.03-5.95 238.06-5.05 239.08-4.15 240.78-4.15L240.78-4.15Q242.18-4.15 243.23-4.58 244.28-5 244.96-5.55 245.63-6.1 245.98-6.45L245.98-6.45Q246.58-7.05 246.88-7.18 247.18-7.3 247.73-7.3L247.73-7.3 252.08-7.3Q252.53-7.3 252.78-7 253.03-6.7 252.93-6.25L252.93-6.25Q252.68-5.45 251.68-4.3 250.68-3.15 248.98-2.05 247.28-0.95 244.96-0.23 242.63 0.5 239.83 0.5ZM237.73-15.4L237.68-15.25 248.73-15.25 248.78-15.4Q249.23-17.35 248.86-18.82 248.48-20.3 247.43-21.13 246.38-21.95 244.63-21.95L244.63-21.95Q242.88-21.95 241.46-21.13 240.03-20.3 239.08-18.82 238.13-17.35 237.73-15.4L237.73-15.4Z" fill="#3b71ca" data-fill-palette-color="primary"></path></g></svg></g></svg></g></svg></g></svg></g><g transform="matrix(1,0,0,1,408.1326101270247,0)"><svg viewBox="0 0 47.21075204242162 73.83481249914493" height="73.83481249914493" width="47.21075204242162"><g><svg xmlns="http://www.w3.org/2000/svg" xmlns:xlink="http://www.w3.org/1999/xlink" version="1.0" x="0" y="0" viewBox="266.36599999999993 370.66299999999995 64.12199999999996 100.28300000000002" enable-background="new 247.64 370.945 100 100" xml:space="preserve" width="47.21075204242162" height="73.83481249914493" class="icon-icon-0" data-fill-palette-color="accent" id="icon-0"><path d="M330.475 438.775v-43.071c-0.01-4.63-3.773-7.393-7.41-7.393-0.004 0-0.007 0-0.012 0-1.865 0.002-3.717 0.722-5.076 1.974-0.02 0.018-0.035 0.038-0.054 0.056v-8.135c-0.011-4.631-3.774-7.394-7.41-7.394-0.006 0-0.009 0-0.013 0-1.865 0.002-3.717 0.723-5.075 1.974-0.051 0.046-0.094 0.098-0.144 0.146-0.562-3.947-3.991-6.269-7.322-6.269-0.003 0-0.007 0-0.012 0-1.864 0.002-3.715 0.723-5.075 1.974-1.498 1.379-2.322 3.313-2.317 5.446v2.539c-1.406-1.321-3.291-2.043-5.149-2.043-0.002 0-0.006 0-0.011 0-1.864 0.003-3.715 0.723-5.076 1.973-1.497 1.38-2.322 3.314-2.317 5.445v23.725c-1.814-2.056-4.481-3.192-7.098-3.192-0.004 0-0.009 0-0.014 0-2.387 0.005-2.492 0.007-2.539 0.007-0.032 0-0.031 0-0.853 0-0.627 0-1.132 0.504-1.132 1.132v31.233h0.003c0.067 17.68 14.397 32.044 32.005 32.044 17.708 0 32.114-14.431 32.114-32.17H330.475L330.475 438.775zM298.375 468.681c-16.401 0-29.746-13.416-29.746-29.909v-29.975c0.276-0.002 0.885-0.002 2.263-0.004 0.005 0 0.009 0 0.012 0 3.436 0 7.088 2.48 7.097 7.079v18.5h1.132c5.758 0 11.241 1.667 15.896 4.68l0.009-0.019c0.141 0.062 0.296 0.1 0.458 0.1 0.626 0 1.132-0.506 1.132-1.132 0-0.406-0.228-0.749-0.552-0.948l0.009-0.013c-4.671-2.979-10.101-4.71-15.819-4.911v-46.134c-0.004-1.912 0.862-3.11 1.587-3.777 0.948-0.873 2.24-1.375 3.547-1.377 0.002 0 0.004 0 0.008 0 2.491 0 5.139 1.799 5.146 5.133v35.522c0 0.626 0.506 1.132 1.132 1.132 0.626 0 1.131-0.506 1.131-1.132v-43.418c-0.004-1.911 0.861-3.108 1.587-3.777 0.948-0.873 2.24-1.374 3.548-1.376 0.002 0 0.004 0 0.008 0 2.49 0 5.139 1.798 5.146 5.132v43.438c0 0.626 0.506 1.132 1.132 1.132s1.131-0.506 1.131-1.132v-39.269c-0.003-1.911 0.862-3.109 1.587-3.777 0.947-0.873 2.24-1.373 3.548-1.375 0.002 0 0.005 0 0.009 0 2.49 0 5.138 1.798 5.146 5.132v38.595 0.619h0.016c-0.002 0.026-0.016 0.049-0.016 0.075 0 0.626 0.505 1.132 1.132 1.132 0.626 0 1.132-0.506 1.132-1.132 0-0.026-0.015-0.049-0.017-0.075h0.017v-0.619-25.076c-0.004-1.911 0.86-3.108 1.586-3.777 0.947-0.872 2.24-1.373 3.549-1.375 0.002 0 0.004 0 0.007 0 2.491 0 5.14 1.798 5.147 5.132v43.067h0.015C328.226 455.265 314.835 468.681 298.375 468.681z" fill="#3b71ca" data-fill-palette-color="accent"></path></svg></g></svg></g></svg></g><defs></defs></svg><rect width="395.52" height="64.13433787752126" fill="none" stroke="none" visibility="hidden"></rect></g></svg></g></svg>